<?xml version="1.0" encoding="UTF-8"?>
<!DOCTYPE svg PUBLIC "-//W3C//DTD SVG 1.1//EN" "http://www.w3.org/Graphics/SVG/1.1/DTD/svg11.dtd">
<svg xmlns="http://www.w3.org/2000/svg" version="1.1" width="512px" height="438px" style="shape-rendering:geometricPrecision; text-rendering:geometricPrecision; image-rendering:optimizeQuality; fill-rule:evenodd; clip-rule:evenodd" xmlns:xlink="http://www.w3.org/1999/xlink">
<g><path style="opacity:1" fill="#f9faf9" d="M -0.5,-0.5 C 14.5,-0.5 29.5,-0.5 44.5,-0.5C 44.1667,131.835 44.5,264.168 45.5,396.5C 73.4471,383.534 99.7804,368.034 124.5,350C 155.938,326.575 185.605,300.908 213.5,273C 214.332,272.312 214.998,272.479 215.5,273.5C 218.304,279.608 220.971,285.775 223.5,292C 174.074,344.044 117.408,386.377 53.5,419C 37.0594,426.088 20.3927,432.254 3.5,437.5C 2.16667,437.5 0.833333,437.5 -0.5,437.5C -0.5,291.5 -0.5,145.5 -0.5,-0.5 Z"/></g>
<g><path style="opacity:1" fill="#f9faf9" d="M 84.5,-0.5 C 95.8333,-0.5 107.167,-0.5 118.5,-0.5C 148.318,1.27235 174.651,11.7723 197.5,31C 209.429,43.6841 219.262,57.8508 227,73.5C 233.272,85.7109 239.272,98.0442 245,110.5C 279.556,191.498 314.889,272.165 351,352.5C 357.118,366.618 366.784,377.618 380,385.5C 380.667,308.5 380.667,231.5 380,154.5C 357.934,172.23 337.434,191.73 318.5,213C 317.517,213.591 316.85,213.257 316.5,212C 313.597,205.125 310.597,198.292 307.5,191.5C 342.471,154.006 381.138,121.173 423.5,93C 424.448,92.5172 425.448,92.3505 426.5,92.5C 426.5,207.5 426.5,322.5 426.5,437.5C 414.167,437.5 401.833,437.5 389.5,437.5C 341.704,433.695 307.204,410.361 286,367.5C 278.395,352.623 271.061,337.623 264,322.5C 231.492,245.816 198.158,169.482 164,93.5C 158.435,79.5224 150.269,67.3557 139.5,57C 136.582,55.2912 133.748,53.4579 131,51.5C 130.333,128.833 130.333,206.167 131,283.5C 152.828,265.483 173.328,245.983 192.5,225C 193.332,224.312 193.998,224.479 194.5,225.5C 197.637,232.275 200.637,239.108 203.5,246C 167.875,283.973 128.375,317.14 85,345.5C 84.5,230.167 84.3333,114.834 84.5,-0.5 Z"/></g>
<g><path style="opacity:1" fill="#f9faf9" d="M 508.5,-0.5 C 509.5,-0.5 510.5,-0.5 511.5,-0.5C 511.5,145.5 511.5,291.5 511.5,437.5C 496.5,437.5 481.5,437.5 466.5,437.5C 466.667,305.166 466.5,172.833 466,40.5C 437.363,53.5119 410.53,69.3452 385.5,88C 354.294,111.31 324.96,136.977 297.5,165C 296.517,165.591 295.85,165.257 295.5,164C 292.638,157.748 289.972,151.415 287.5,145C 338.501,91.9917 396.834,48.9917 462.5,16C 477.611,9.57643 492.945,4.07643 508.5,-0.5 Z"/></g>
</svg>
